<svg xmlns="http://www.w3.org/2000/svg" width="1600" height="900" viewBox="0 0 1600 900" role="img" aria-label="DeepMind’s ‘Atlas’ Predicts the Effect of All 9 Billion Human DNA Mutations">
  <defs>
    <linearGradient id="bg" gradientTransform="rotate(156 0.5 0.5)">
      <stop offset="0" stop-color="hsl(211, 32%, 11%)"/>
      <stop offset="1" stop-color="hsl(211, 38%, 25%)"/>
    </linearGradient>
    <radialGradient id="glow" cx="66%" cy="49%" r="70%">
      <stop offset="0" stop-color="hsl(211, 78%, 62%)" stop-opacity="0.42"/>
      <stop offset="55%" stop-color="hsl(211, 78%, 62%)" stop-opacity="0.10"/>
      <stop offset="100%" stop-color="hsl(211, 78%, 62%)" stop-opacity="0"/>
    </radialGradient>
  </defs>
  <rect width="1600" height="900" fill="url(#bg)"/>
  <g><line x1="-900" y1="0" x2="0" y2="900" stroke="#ffffff" stroke-width="1" opacity="0.03"/><line x1="-810" y1="0" x2="90" y2="900" stroke="#ffffff" stroke-width="1" opacity="0.03"/><line x1="-720" y1="0" x2="180" y2="900" stroke="#ffffff" stroke-width="1" opacity="0.03"/><line x1="-630" y1="0" x2="270" y2="900" stroke="#ffffff" stroke-width="1" opacity="0.03"/><line x1="-540" y1="0" x2="360" y2="900" stroke="#ffffff" stroke-width="1" opacity="0.03"/><line x1="-450" y1="0" x2="450" y2="900" stroke="#ffffff" stroke-width="1" opacity="0.03"/><line x1="-360" y1="0" x2="540" y2="900" stroke="#ffffff" stroke-width="1" opacity="0.03"/><line x1="-270" y1="0" x2="630" y2="900" stroke="#ffffff" stroke-width="1" opacity="0.03"/><line x1="-180" y1="0" x2="720" y2="900" stroke="#ffffff" stroke-width="1" opacity="0.03"/><line x1="-90" y1="0" x2="810" y2="900" stroke="#ffffff" stroke-width="1" opacity="0.03"/><line x1="0" y1="0" x2="900" y2="900" stroke="#ffffff" stroke-width="1" opacity="0.03"/><line x1="90" y1="0" x2="990" y2="900" stroke="#ffffff" stroke-width="1" opacity="0.03"/><line x1="180" y1="0" x2="1080" y2="900" stroke="#ffffff" stroke-width="1" opacity="0.03"/><line x1="270" y1="0" x2="1170" y2="900" stroke="#ffffff" stroke-width="1" opacity="0.03"/><line x1="360" y1="0" x2="1260" y2="900" stroke="#ffffff" stroke-width="1" opacity="0.03"/><line x1="450" y1="0" x2="1350" y2="900" stroke="#ffffff" stroke-width="1" opacity="0.03"/><line x1="540" y1="0" x2="1440" y2="900" stroke="#ffffff" stroke-width="1" opacity="0.03"/><line x1="630" y1="0" x2="1530" y2="900" stroke="#ffffff" stroke-width="1" opacity="0.03"/><line x1="720" y1="0" x2="1620" y2="900" stroke="#ffffff" stroke-width="1" opacity="0.03"/><line x1="810" y1="0" x2="1710" y2="900" stroke="#ffffff" stroke-width="1" opacity="0.03"/><line x1="900" y1="0" x2="1800" y2="900" stroke="#ffffff" stroke-width="1" opacity="0.03"/><line x1="990" y1="0" x2="1890" y2="900" stroke="#ffffff" stroke-width="1" opacity="0.03"/><line x1="1080" y1="0" x2="1980" y2="900" stroke="#ffffff" stroke-width="1" opacity="0.03"/><line x1="1170" y1="0" x2="2070" y2="900" stroke="#ffffff" stroke-width="1" opacity="0.03"/><line x1="1260" y1="0" x2="2160" y2="900" stroke="#ffffff" stroke-width="1" opacity="0.03"/><line x1="1350" y1="0" x2="2250" y2="900" stroke="#ffffff" stroke-width="1" opacity="0.03"/><line x1="1440" y1="0" x2="2340" y2="900" stroke="#ffffff" stroke-width="1" opacity="0.03"/><line x1="1530" y1="0" x2="2430" y2="900" stroke="#ffffff" stroke-width="1" opacity="0.03"/></g>
  <rect width="1600" height="900" fill="url(#glow)"/>
  <g><circle cx="1347" cy="547" r="130" fill="none" stroke="hsl(211, 45%, 82%)" stroke-width="1.5" opacity="0.22"/><circle cx="1347" cy="547" r="238" fill="none" stroke="hsl(211, 45%, 82%)" stroke-width="1.5" opacity="0.19"/><circle cx="1347" cy="547" r="328" fill="none" stroke="hsl(211, 45%, 82%)" stroke-width="1.5" opacity="0.16"/><circle cx="1347" cy="547" r="340" fill="none" stroke="hsl(211, 45%, 82%)" stroke-width="1.5" opacity="0.13"/><circle cx="1347" cy="547" r="566" fill="none" stroke="hsl(211, 45%, 82%)" stroke-width="1.5" opacity="0.10"/></g>
  <text x="80" y="118" font-family="Helvetica, Arial, sans-serif" font-size="26" letter-spacing="10" fill="#ffffff" opacity="0.60">CAMBRIAN AI</text>
  <text x="82" y="255" font-family="Helvetica, Arial, sans-serif" font-size="28" font-weight="700" letter-spacing="7" fill="hsl(211, 45%, 82%)" opacity="0.95">RESEARCH</text>
  <text x="80" y="355" font-family="Helvetica, Arial, sans-serif" font-size="66" font-weight="600" letter-spacing="-0.5" fill="#ffffff" opacity="0.96">DeepMind’s ‘Atlas’</text><text x="80" y="432" font-family="Helvetica, Arial, sans-serif" font-size="66" font-weight="600" letter-spacing="-0.5" fill="#ffffff" opacity="0.96">Predicts the Effect of</text><text x="80" y="508" font-family="Helvetica, Arial, sans-serif" font-size="66" font-weight="600" letter-spacing="-0.5" fill="#ffffff" opacity="0.96">All 9 Billion Human</text><text x="80" y="585" font-family="Helvetica, Arial, sans-serif" font-size="66" font-weight="600" letter-spacing="-0.5" fill="#ffffff" opacity="0.96">DNA Mutations</text>
  <rect x="82" y="812" width="60" height="4" rx="2" fill="hsl(211, 78%, 62%)" opacity="0.9"/>
  <text x="82" y="852" font-family="Helvetica, Arial, sans-serif" font-size="22" letter-spacing="2" fill="#ffffff" opacity="0.55">cambrian-ai.vercel.app</text>
</svg>
